# xmcd
#
# Track frame offsets:
#	150
#	9176
#	22887
#	33417
#	45065
#	56282
#	67757
#	77815
#	93176
#	103440
#	115252
#	128953
#	143069
# Disc length: 2101 seconds
# Revision: 4
# Processed by: cddbd v1.5.1PL2 Copyright (c) Steve Scherf et al.
#
# Submitted via: libkcddb 0.31
#
DISCID=9408330d
DTITLE=Sammy Vomacka - Ragtime, Blues and Jazz Guitar
DYEAR=1998
DGENRE=Blues
TTITLE0=Steady Rolling Man
TTITLE1=Sweet Home Chicago
TTITLE2=Walking Blues
TTITLE3=Police Dog Blues
TTITLE4=Diddy Wah Diddy
TTITLE5=Honeysuckle Rose
TTITLE6=Keep Your Hands Off Her
TTITLE7=Temtation Rag
TTITLE8=Yaketi Sax
TTITLE9=Caravan
TTITLE10=Blues For Karin
TTITLE11=Sweet Lorain
TTITLE12=Moonlight In Vermont
EXTD=
EXTT0=
EXTT1=
EXTT2=
EXTT3=
EXTT4=
EXTT5=
EXTT6=
EXTT7=
EXTT8=
EXTT9=
EXTT10=
EXTT11=
EXTT12=
PLAYORDER=
